# xmcd CD database file
#
# Track frame offsets:
#	150
#	16108
#	33135
#	56489
#	76372
#	96788
#	116044
#	139708
#	156124
#	174948
#	185627
#	208863
#
# Disc length: 3001 seconds
#
# Revision: 0
# Processed by: cddbd v1.5.2PL0 Copyright (c) Steve Scherf et al.
# Submitted via: CDex 1.70beta2
#
DISCID=950bb70c
DTITLE=Joe Sample - Soul Shadows 
DYEAR=2004
DGENRE=Jazz
TTITLE0=How You Gonna Keep 'Em Down On The Farm?
TTITLE1=Ain't Misbehavin'
TTITLE2=Avalon
TTITLE3=Soul Shadows
TTITLE4=I Got Rhythm
TTITLE5=I Got It Bad And That Ain't Good
TTITLE6=Spellbound
TTITLE7=It's A Sin To Tell A Lie
TTITLE8=The Entertainer
TTITLE9=Shreveport Stomp
TTITLE10=Embraceable You
TTITLE11=Jitterburg Waltz
EXTD=YEAR: 2004
EXTT0=
EXTT1=
EXTT2=
EXTT3=
EXTT4=
EXTT5=
EXTT6=
EXTT7=
EXTT8=
EXTT9=
EXTT10=
EXTT11=
PLAYORDER=
